<?xml version="1.0" encoding="UTF-8"?>
<svg id="Layer_1" xmlns="http://www.w3.org/2000/svg" version="1.1" viewBox="0 0 639.61 272.46">
  <!-- Generator: Adobe Illustrator 30.6.0, SVG Export Plug-In . SVG Version: 2.1.4 Build 109)  -->
  <defs>
    <style>
      .st0 {
        stroke-width: 3px;
      }

      .st0, .st1, .st2, .st3, .st4, .st5, .st6 {
        stroke: #1a351f;
        stroke-miterlimit: 10;
      }

      .st0, .st1, .st4, .st5 {
        fill: #0b8040;
      }

      .st1 {
        stroke-width: 4px;
      }

      .st2 {
        stroke-linecap: round;
      }

      .st2, .st3, .st6 {
        fill: #f4f5f6;
      }

      .st2, .st6 {
        stroke-width: 5px;
      }

      .st3, .st4 {
        stroke-width: 2px;
      }
    </style>
  </defs>
  <g>
    <path class="st1" d="M109.21,36.47l-54.86,124.41-28.68-65.63H3.05l39.98,91.62,11.32,25.98,11.31-25.98L131.84,36.47h-22.63Z"/>
    <path class="st6" d="M153.24,136.69v10.86c-6.27-6.72-14.78-10.86-24.19-10.86-19.15,0-34.61,17.02-34.61,38.08s15.46,38.08,34.61,38.08c12.43,0,23.41-7.28,29.45-18.14l15.57,18.14v-76.16h-20.83ZM134.2,192.13c-10.53,0-19.04-7.84-19.04-17.36s8.51-17.25,19.04-17.25,19.04,7.73,19.04,17.25-8.51,17.36-19.04,17.36Z"/>
    <path class="st1" d="M216.41,115.97v96.88h20.72v-96.88h-20.72ZM185.27,95.25v117.6h20.72v-117.6h-20.72Z"/>
    <path class="st1" d="M306.23,180.15c0,.11-.11.22-.11.33-4.37,11.76-20.84,15.12-30.24,7.62l30.46-18.15,12.32-7.28c3.47-2.01,4.37-6.6,1.91-9.85-7.51-10.08-19.94-16.24-32.49-16.02-21.95,0-39.76,17.03-39.76,37.97,0,5.6,1.24,10.86,3.48,15.57,1.45,3.25,3.36,6.16,5.71,8.73,16.25,19.21,48.2,18.03,63.07-2.21l-14.33-16.7h-.02ZM269.05,174.77c-.23-13.55,16.8-21.28,28.56-15.01,1.34.67,1.34,2.58,0,3.36l-27.78,16.58c-.45-1.57-.78-3.25-.78-4.93Z"/>
    <path class="st1" d="M353.04,95.25c-7.61,0-13.77,6.27-13.77,13.89s6.16,13.77,13.77,13.77,13.89-6.16,13.89-13.77-6.27-13.89-13.89-13.89Z"/>
    <path class="st1" d="M363.46,136.8v79.52c0,10.4-4.35,19.82-11.4,26.68-6.86,7.05-16.28,11.4-26.68,11.4h-20.72l-17.5-20.73v-.1h38.22c4.73-.38,8.92-2.32,12-5.25,2.93-3.08,4.87-7.27,5.25-12v-79.52h20.83Z"/>
    <path class="st1" d="M417.89,136.69c-21.95,0-39.76,17.02-39.76,38.08s17.81,38.08,39.76,38.08,39.87-17.02,39.87-38.08-17.92-38.08-39.87-38.08ZM417.89,192.13c-10.53,0-19.04-7.84-19.04-17.36s8.51-17.25,19.04-17.25,19.04,7.73,19.04,17.25-8.51,17.36-19.04,17.36Z"/>
    <g>
      <path class="st5" d="M402.41,240.32h2.12v4.29h-2.12v5.69h-4.29v-5.69h-12.28l1.47-4.29,4.84-14.1,4.03,1.38-4.36,12.72h6.29v-14.22h4.29v14.22Z"/>
      <path class="st5" d="M411.1,243.76v2.28h14.24v4.26h-18.5v-7.14c0-2.6,1.75-4.86,4.26-5.51l1.91-.48,5.99-1.54.23-.07c.78-.18,1.36-.46,1.73-.81.39-.35.58-.85.58-1.57,0-1.01-.53-1.75-1.59-2.21-1.08-.46-2.79-.69-5.14-.69-1.06,0-2.19.07-3.36.18s-2.54.28-4.08.53l-.53-4.24c1.04-.23,2.19-.39,3.43-.51,1.27-.09,2.77-.14,4.54-.14,4.03,0,6.98.55,8.8,1.71,1.84,1.13,2.77,2.95,2.77,5.46,0,1.87-.58,3.3-1.71,4.29-1.15.99-2.93,1.77-5.39,2.35l-4.31,1.06-2.07.51c-1.06.25-1.8,1.2-1.8,2.28Z"/>
      <path class="st5" d="M450.05,238.2c0,6.68-4.79,12.1-10.69,12.1s-10.67-5.42-10.67-12.1,4.77-12.1,10.67-12.1,10.69,5.42,10.69,12.1ZM445.77,238.2c0-4.33-2.86-7.84-6.41-7.84s-6.41,3.5-6.41,7.84,2.88,7.84,6.41,7.84,6.41-3.5,6.41-7.84Z"/>
    </g>
  </g>
  <g>
    <rect class="st4" x="545.1" y="114.83" width="42.52" height="127.01"/>
    <g>
      <path class="st4" d="M579.28,254.73c-7.08-7.08-11.8-14.74-12.91-20.22,5.49,1.12,13.14,5.83,20.22,12.91s11.8,14.74,12.92,20.23c-5.49-1.12-13.14-5.84-20.23-12.92Z"/>
      <path class="st0" d="M562.49,252.16c0-7.51,1.56-14.07,3.88-17.57,2.32,3.5,3.88,10.06,3.88,17.57s-1.56,14.07-3.88,17.58c-2.32-3.51-3.88-10.07-3.88-17.58Z"/>
      <path class="st4" d="M553.45,254.73c7.08-7.08,11.8-14.74,12.91-20.22-5.49,1.12-13.14,5.83-20.22,12.91-7.08,7.08-11.8,14.74-12.92,20.23,5.49-1.12,13.14-5.84,20.23-12.92Z"/>
    </g>
    <path class="st6" d="M573.58,192.71v-77.9h31.77c17.54,0,31.76,28.45,31.76,63.52s-14.22,63.54-31.76,63.54h-31.77"/>
    <polyline class="st2" points="605.32 146.58 605.32 192.71 573.57 192.71 573.57 146.58"/>
    <line class="st2" x1="573.56" y1="241.81" x2="573.56" y2="193.4"/>
    <path class="st6" d="M561.47,146.58v11.59c0,11.13-9.03,20.16-20.16,20.16h-57.74v-53.42c0-5.57,4.51-10.08,10.08-10.08h47.66c11.13,0,20.16,9.03,20.16,20.16v11.59Z"/>
    <path class="st6" d="M483.57,210.09v21.67c0,5.57,4.51,10.08,10.08,10.08h47.66c11.13,0,20.16-9.03,20.16-20.16v-23.18c0-11.13-9.03-20.16-20.16-20.16h-57.74v31.75Z"/>
    <line class="st3" x1="561.47" y1="210.09" x2="483.57" y2="210.09"/>
    <line class="st3" x1="561.47" y1="146.58" x2="483.57" y2="146.58"/>
    <g>
      <path class="st1" d="M578.61,59.19c0,23.75-4.93,44.47-12.25,55.54-7.32-11.07-12.25-31.79-12.25-55.54s4.93-44.47,12.25-55.56c7.32,11.09,12.25,31.81,12.25,55.56Z"/>
      <path class="st1" d="M602.31,93.79c-12.59,12.59-26.2,20.97-35.95,22.96,1.99-9.75,10.37-23.36,22.96-35.95,12.59-12.59,26.2-20.97,35.96-22.97-2,9.76-10.38,23.37-22.97,35.96Z"/>
      <path class="st1" d="M597.61,123.64c-13.36,0-25.02-2.77-31.24-6.89,6.23-4.12,17.88-6.89,31.24-6.89s25.02,2.77,31.25,6.89c-6.24,4.12-17.89,6.89-31.25,6.89Z"/>
      <path class="st1" d="M530.41,93.79c12.59,12.59,26.2,20.97,35.95,22.96-1.99-9.75-10.37-23.36-22.96-35.95-12.59-12.59-26.2-20.97-35.96-22.97,2,9.76,10.38,23.37,22.97,35.96Z"/>
      <path class="st1" d="M535.12,123.64c13.36,0,25.02-2.77,31.24-6.89-6.23-4.12-17.88-6.89-31.24-6.89s-25.02,2.77-31.25,6.89c6.24,4.12,17.89,6.89,31.25,6.89Z"/>
    </g>
  </g>
</svg>