<?xml version="1.0" encoding="UTF-8"?>
<svg id="Layer_1" xmlns="http://www.w3.org/2000/svg" version="1.1" viewBox="0 0 781.69 960.95">
  <!-- Generator: Adobe Illustrator 30.6.0, SVG Export Plug-In . SVG Version: 2.1.4 Build 109)  -->
  <defs>
    <style>
      .st0 {
        fill: #ff1a1a;
      }
    </style>
  </defs>
  <path id="path817" class="st0" d="M256.25,606.31l45.09-10.24c.94-.21,2.53-.57,4.42-1.17,25.88-6.81,41.62-32.52,35.6-58.15l-.18-.78c-1.49-5.91-4.09-11.49-7.68-16.46-5.05-6.29-11.3-11.55-18.4-15.5-8.36-4.67-17.1-8.65-26.15-11.87l-49.43-17.74c-27.74-10.13-55.48-19.98-83.51-29.61-18.14-6.33-33.53-11.91-46.9-15.99-2.54-.69-5.07-1.45-7.57-2.27-16.15-4.83-27.52-6.86-37.12-6.93-6.41-.23-12.8.91-18.72,3.34-6.18,2.63-11.74,6.5-16.3,11.37-2.26,2.52-4.39,5.15-6.37,7.89-3.86,5.82-7.04,12.04-9.49,18.55C4.37,487.39-.21,515.33,0,543.44c.18,25.38.87,57.97,15.1,80.08,3.44,5.69,8.04,10.59,13.51,14.39,10.14,6.86,20.35,7.78,31.03,8.53,15.93,1.1,31.32-2.7,46.72-6.22l149.78-33.94.11.04ZM759.26,371.41c-12.31-25.35-28.86-48.51-48.96-68.49-2.6-2.54-5.38-4.89-8.33-7.04-2.72-2-5.55-3.87-8.47-5.58-3.01-1.62-6.1-3.08-9.27-4.37-6.25-2.41-12.95-3.5-19.66-3.2-6.41.36-12.67,2.13-18.36,5.08-8.58,4.19-17.89,10.95-30.27,22.21-1.7,1.67-3.84,3.55-5.79,5.33-10.18,9.42-21.55,21.04-35.05,34.55-20.9,20.72-41.43,41.55-61.89,62.56l-36.58,37.25c-6.68,6.79-12.76,14.13-18.18,21.93-4.64,6.6-7.92,14.03-9.67,21.86-.98,6.02-.83,12.16.43,18.13l.18.78c6.01,25.6,31.59,41.94,57.87,36.96,1.52-.21,3.03-.5,4.53-.85l194.9-44.22c15.39-3.48,30.96-6.68,44.76-14.57,9.27-5.22,18.07-10.45,24.12-20.97,3.22-5.79,5.17-12.19,5.72-18.77,3.01-26.09-10.86-55.7-22.02-78.59h0ZM410.34,451.85c14.12-17.42,14.12-43.36,15.35-64.62,4.27-70.91,8.73-141.82,12.31-212.76,1.34-26.87,4.27-53.39,2.64-80.47-1.34-22.32-1.48-47.98-15.86-66.32C399.44-4.67,345.34-2,308.44,3.05c-11.38,1.54-22.68,3.63-33.86,6.26-11.23,2.63-22.38,5.51-33.24,8.96-35.42,11.37-85.21,32.27-93.61,72.33-4.78,22.64,6.52,45.78,15.21,66.47,10.61,25.02,25.06,47.59,38.24,71.16,34.87,62.24,70.36,124.12,105.74,186.03,10.61,18.48,22.09,41.87,42.55,51.47,1.38.57,2.75,1.07,4.16,1.53,9.16,3.41,19.19,4.05,28.72,1.88l1.7-.36c8.84-2.38,16.8-7.11,23.07-13.61,1.16-1.07,2.21-2.13,3.26-3.31h-.04ZM393.43,641.68c-11.31-15.61-31.56-22.31-50.19-16.6-2.14.69-4.22,1.53-6.23,2.52-3.11,1.56-6.08,3.38-8.87,5.44-7.97,6.17-15.09,13.32-21.18,21.29-1.56,1.95-3.01,4.55-4.89,6.26l-31.36,42.3c-17.74,23.74-35.31,47.52-52.65,71.65-11.37,15.6-21.15,28.79-28.93,40.41-1.45,2.2-2.97,4.62-4.35,6.61-9.31,14.07-14.56,24.38-17.27,33.55-2.03,6.09-2.67,12.55-1.88,18.91.87,6.61,3.15,12.97,6.66,18.7,1.88,2.84,3.91,5.62,6.08,8.28,4.69,5.3,9.98,10.07,15.75,14.22,21.66,14.79,45.34,25.41,70.25,33.62,20.75,6.75,42.3,10.81,64.1,12.01,3.73.18,7.46.11,11.15-.21,3.43-.31,6.83-.79,10.21-1.42,3.38-.77,6.72-1.72,9.99-2.84,6.37-2.34,12.17-5.98,17.02-10.66,4.6-4.51,8.15-9.95,10.36-15.96,3.62-8.89,6.01-20.12,7.6-36.82.11-2.38.47-5.22.72-7.82,1.23-13.86,1.81-30.21,2.68-49.33,1.56-29.47,2.75-58.79,3.69-88.18l2.03-52.32c.47-12.01.07-25.38-3.33-37.36-1.5-5.75-3.92-11.24-7.17-16.24h0ZM747.34,723.54c-6.52-7.07-15.79-14.07-30.42-22.75-2.1-1.17-4.6-2.7-6.88-4.05-12.17-7.22-26.83-14.75-43.96-23.88-26.33-14.22-52.65-28.01-79.27-41.73l-46.97-24.45c-2.43-.71-4.89-2.42-7.21-3.52-9.03-4.53-18.62-7.89-28.54-9.99-3.41-.65-6.88-1-10.36-1.07-2.25-.01-4.5.12-6.74.39-19.29,2.92-34.48,17.68-37.66,36.57-.69,5.86-.47,11.8.69,17.56,2.28,12.3,7.86,24.42,13.65,35.05l25.06,46.17c13.98,26.02,28.1,51.89,42.59,77.7,9.34,16.81,17.13,31.21,24.41,43.15,1.38,2.24,2.93,4.66,4.13,6.75,8.87,14.32,15.97,23.35,23.18,29.86,9.72,9.18,23.11,13.61,36.5,12.08,3.45-.41,6.87-1.01,10.25-1.78,6.93-1.82,13.62-4.41,19.95-7.71,19.06-10.49,36.63-23.39,52.26-38.39,18.76-18.13,35.34-37.89,48.24-60.49,1.81-3.2,3.33-6.5,4.64-9.95,1.21-3.16,2.26-6.37,3.15-9.63.76-3.34,1.34-6.68,1.74-10.06.65-6.64-.13-13.33-2.28-19.66-2.13-6.07-5.59-11.6-10.14-16.21v.04Z"/>
</svg>